solid com.sketchup.SketchUp.2019
facet normal 0 0 -1
  outer loop
    vertex 5.161138534545898 5.218084335327148 0
    vertex 1.978201150894165 4.975196838378906 0
    vertex 1.978201150894165 5.218084335327148 0
  endloop
endfacet
facet normal 0 0 -1
  outer loop
    vertex 1.978201150894165 4.975196838378906 0
    vertex 5.161138534545898 5.218084335327148 0
    vertex 2.178226232528687 4.975196838378906 0
  endloop
endfacet
facet normal 0 0 -1
  outer loop
    vertex 2.178226232528687 4.975196838378906 0
    vertex 5.161138534545898 5.218084335327148 0
    vertex 5.161138534545898 4.975196838378906 0
  endloop
endfacet
facet normal 0 0 -1
  outer loop
    vertex 2.178226232528687 4.975196838378906 0
    vertex 1.978201150894165 0.05394677445292473 0
    vertex 1.978201150894165 4.975196838378906 0
  endloop
endfacet
facet normal 0 0 -1
  outer loop
    vertex 1.978201150894165 0.05394677445292473 0
    vertex 2.178226232528687 4.975196838378906 0
    vertex 2.178226232528687 0.05394677445292473 0
  endloop
endfacet
facet normal 0 0 -1
  outer loop
    vertex 2.178226232528687 0.05394677445292473 0
    vertex 2.178226232528687 4.975196838378906 0
    vertex 2.178226232528687 2.085492372512817 0
  endloop
endfacet
facet normal 0 0 -1
  outer loop
    vertex 2.178226232528687 0.05394677445292473 0
    vertex 2.178226232528687 2.085492372512817 0
    vertex 2.178226232528687 1.778887987136841 0
  endloop
endfacet
facet normal 0 0 -1
  outer loop
    vertex 5.161138534545898 2.085492372512817 0
    vertex 2.178226232528687 1.778887987136841 0
    vertex 2.178226232528687 2.085492372512817 0
  endloop
endfacet
facet normal 0 0 -1
  outer loop
    vertex 2.178226232528687 1.778887987136841 0
    vertex 5.161138534545898 2.085492372512817 0
    vertex 5.161138534545898 1.778887987136841 0
  endloop
endfacet
facet normal 0 0 -1
  outer loop
    vertex 5.36116361618042 5.218084335327148 0
    vertex 5.161138534545898 4.975196838378906 0
    vertex 5.161138534545898 5.218084335327148 0
  endloop
endfacet
facet normal 0 0 -1
  outer loop
    vertex 5.161138534545898 4.975196838378906 0
    vertex 5.36116361618042 5.218084335327148 0
    vertex 5.161138534545898 2.749521732330322 0
  endloop
endfacet
facet normal 0 0 -1
  outer loop
    vertex 5.161138534545898 2.749521732330322 0
    vertex 5.36116361618042 5.218084335327148 0
    vertex 5.36116361618042 2.749521732330322 0
  endloop
endfacet
facet normal 0 0 1
  outer loop
    vertex 2.178226232528687 0.05394677445292473 2.052637577056885
    vertex 1.978201150894165 4.975196838378906 2.052637577056885
    vertex 1.978201150894165 0.05394677445292473 2.052637577056885
  endloop
endfacet
facet normal 0 0 1
  outer loop
    vertex 1.978201150894165 4.975196838378906 2.052637577056885
    vertex 2.178226232528687 0.05394677445292473 2.052637577056885
    vertex 2.178226232528687 4.975196838378906 2.052637577056885
  endloop
endfacet
facet normal 0 0 1
  outer loop
    vertex 2.178226232528687 4.975196838378906 2.052637577056885
    vertex 2.178226232528687 0.05394677445292473 2.052637577056885
    vertex 2.178226232528687 1.778887987136841 2.052637577056885
  endloop
endfacet
facet normal 0 0 1
  outer loop
    vertex 2.178226232528687 4.975196838378906 2.052637577056885
    vertex 2.178226232528687 1.778887987136841 2.052637577056885
    vertex 2.178226232528687 2.085492372512817 2.052637577056885
  endloop
endfacet
facet normal 1 0 0
  outer loop
    vertex 2.178226232528687 1.778887987136841 0
    vertex 2.178226232528687 0.05394677445292473 2.052637577056885
    vertex 2.178226232528687 0.05394677445292473 0
  endloop
endfacet
facet normal 1 0 0
  outer loop
    vertex 2.178226232528687 0.05394677445292473 2.052637577056885
    vertex 2.178226232528687 1.778887987136841 0
    vertex 2.178226232528687 1.778887987136841 2.052637577056885
  endloop
endfacet
facet normal -0 -1 -0
  outer loop
    vertex 2.178226232528687 0.05394677445292473 2.052637577056885
    vertex 1.978201150894165 0.05394677445292473 0
    vertex 2.178226232528687 0.05394677445292473 0
  endloop
endfacet
facet normal -0 -1 -0
  outer loop
    vertex 1.978201150894165 0.05394677445292473 0
    vertex 2.178226232528687 0.05394677445292473 2.052637577056885
    vertex 1.978201150894165 0.05394677445292473 2.052637577056885
  endloop
endfacet
facet normal -1 0 0
  outer loop
    vertex 1.978201150894165 4.975196838378906 2.052637577056885
    vertex 1.978201150894165 0.05394677445292473 0
    vertex 1.978201150894165 0.05394677445292473 2.052637577056885
  endloop
endfacet
facet normal -1 0 0
  outer loop
    vertex 1.978201150894165 0.05394677445292473 0
    vertex 1.978201150894165 4.975196838378906 2.052637577056885
    vertex 1.978201150894165 4.975196838378906 0
  endloop
endfacet
facet normal 1 0 0
  outer loop
    vertex 2.178226232528687 4.975196838378906 0
    vertex 2.178226232528687 2.085492372512817 2.052637577056885
    vertex 2.178226232528687 2.085492372512817 0
  endloop
endfacet
facet normal 1 0 0
  outer loop
    vertex 2.178226232528687 2.085492372512817 2.052637577056885
    vertex 2.178226232528687 4.975196838378906 0
    vertex 2.178226232528687 4.975196838378906 2.052637577056885
  endloop
endfacet
facet normal 1 0 0
  outer loop
    vertex 2.178226232528687 2.085492372512817 0
    vertex 2.178226232528687 1.778887987136841 2.052637577056885
    vertex 2.178226232528687 1.778887987136841 0
  endloop
endfacet
facet normal 1 0 0
  outer loop
    vertex 2.178226232528687 1.778887987136841 2.052637577056885
    vertex 2.178226232528687 2.085492372512817 0
    vertex 2.178226232528687 2.085492372512817 2.052637577056885
  endloop
endfacet
facet normal 1.21007815059019e-16 0 1
  outer loop
    vertex 5.161138534545898 1.778887987136841 2.052637577056885
    vertex 2.178226232528687 2.085492372512817 2.052637577056885
    vertex 2.178226232528687 1.778887987136841 2.052637577056885
  endloop
endfacet
facet normal 1.21007815059019e-16 0 1
  outer loop
    vertex 2.178226232528687 2.085492372512817 2.052637577056885
    vertex 5.161138534545898 1.778887987136841 2.052637577056885
    vertex 5.161138534545898 2.085492372512817 2.052637577056885
  endloop
endfacet
facet normal 0 -1 0
  outer loop
    vertex 5.161138534545898 1.778887987136841 2.052637577056885
    vertex 2.178226232528687 1.778887987136841 0
    vertex 5.161138534545898 1.778887987136841 0
  endloop
endfacet
facet normal 0 -1 0
  outer loop
    vertex 2.178226232528687 1.778887987136841 0
    vertex 5.161138534545898 1.778887987136841 2.052637577056885
    vertex 2.178226232528687 1.778887987136841 2.052637577056885
  endloop
endfacet
facet normal 0 1 0
  outer loop
    vertex 2.178226232528687 2.085492372512817 2.052637577056885
    vertex 5.161138534545898 2.085492372512817 0
    vertex 2.178226232528687 2.085492372512817 0
  endloop
endfacet
facet normal 0 1 0
  outer loop
    vertex 5.161138534545898 2.085492372512817 0
    vertex 2.178226232528687 2.085492372512817 2.052637577056885
    vertex 5.161138534545898 2.085492372512817 2.052637577056885
  endloop
endfacet
facet normal 1 0 0
  outer loop
    vertex 5.161138534545898 2.085492372512817 0
    vertex 5.161138534545898 1.778887987136841 2.052637577056885
    vertex 5.161138534545898 1.778887987136841 0
  endloop
endfacet
facet normal 1 0 0
  outer loop
    vertex 5.161138534545898 1.778887987136841 2.052637577056885
    vertex 5.161138534545898 2.085492372512817 0
    vertex 5.161138534545898 2.085492372512817 2.052637577056885
  endloop
endfacet
facet normal 0 0 1
  outer loop
    vertex 5.36116361618042 2.749521732330322 2.052637577056885
    vertex 5.161138534545898 4.975196838378906 2.052637577056885
    vertex 5.161138534545898 2.749521732330322 2.052637577056885
  endloop
endfacet
facet normal 0 0 1
  outer loop
    vertex 5.161138534545898 4.975196838378906 2.052637577056885
    vertex 5.36116361618042 2.749521732330322 2.052637577056885
    vertex 5.161138534545898 5.218084335327148 2.052637577056885
  endloop
endfacet
facet normal 0 0 1
  outer loop
    vertex 5.161138534545898 5.218084335327148 2.052637577056885
    vertex 5.36116361618042 2.749521732330322 2.052637577056885
    vertex 5.36116361618042 5.218084335327148 2.052637577056885
  endloop
endfacet
facet normal 0 1 0
  outer loop
    vertex 5.161138534545898 5.218084335327148 2.052637577056885
    vertex 5.36116361618042 5.218084335327148 0
    vertex 5.161138534545898 5.218084335327148 0
  endloop
endfacet
facet normal 0 1 0
  outer loop
    vertex 5.36116361618042 5.218084335327148 0
    vertex 5.161138534545898 5.218084335327148 2.052637577056885
    vertex 5.36116361618042 5.218084335327148 2.052637577056885
  endloop
endfacet
facet normal 1 0 0
  outer loop
    vertex 5.36116361618042 5.218084335327148 0
    vertex 5.36116361618042 2.749521732330322 2.052637577056885
    vertex 5.36116361618042 2.749521732330322 0
  endloop
endfacet
facet normal 1 0 0
  outer loop
    vertex 5.36116361618042 2.749521732330322 2.052637577056885
    vertex 5.36116361618042 5.218084335327148 0
    vertex 5.36116361618042 5.218084335327148 2.052637577056885
  endloop
endfacet
facet normal -0 -1 -0
  outer loop
    vertex 5.36116361618042 2.749521732330322 2.052637577056885
    vertex 5.161138534545898 2.749521732330322 0
    vertex 5.36116361618042 2.749521732330322 0
  endloop
endfacet
facet normal -0 -1 -0
  outer loop
    vertex 5.161138534545898 2.749521732330322 0
    vertex 5.36116361618042 2.749521732330322 2.052637577056885
    vertex 5.161138534545898 2.749521732330322 2.052637577056885
  endloop
endfacet
facet normal -1 0 0
  outer loop
    vertex 5.161138534545898 4.975196838378906 2.052637577056885
    vertex 5.161138534545898 2.749521732330322 0
    vertex 5.161138534545898 2.749521732330322 2.052637577056885
  endloop
endfacet
facet normal -1 0 0
  outer loop
    vertex 5.161138534545898 2.749521732330322 0
    vertex 5.161138534545898 4.975196838378906 2.052637577056885
    vertex 5.161138534545898 4.975196838378906 0
  endloop
endfacet
facet normal -1 0 0
  outer loop
    vertex 5.161138534545898 5.218084335327148 2.052637577056885
    vertex 5.161138534545898 4.975196838378906 0
    vertex 5.161138534545898 4.975196838378906 2.052637577056885
  endloop
endfacet
facet normal -1 0 0
  outer loop
    vertex 5.161138534545898 4.975196838378906 0
    vertex 5.161138534545898 5.218084335327148 2.052637577056885
    vertex 5.161138534545898 5.218084335327148 0
  endloop
endfacet
facet normal -3.563641317027478e-17 2.54488825541068e-15 1
  outer loop
    vertex 2.178226232528687 4.975196838378906 2.052637577056885
    vertex 1.978201150894165 5.218084335327148 2.052637577056885
    vertex 1.978201150894165 4.975196838378906 2.052637577056885
  endloop
endfacet
facet normal -3.563641317027478e-17 2.54488825541068e-15 1
  outer loop
    vertex 1.978201150894165 5.218084335327148 2.052637577056885
    vertex 2.178226232528687 4.975196838378906 2.052637577056885
    vertex 5.161138534545898 5.218084335327148 2.052637577056885
  endloop
endfacet
facet normal -3.563641317027478e-17 2.54488825541068e-15 1
  outer loop
    vertex 5.161138534545898 5.218084335327148 2.052637577056885
    vertex 2.178226232528687 4.975196838378906 2.052637577056885
    vertex 5.161138534545898 4.975196838378906 2.052637577056885
  endloop
endfacet
facet normal -1 0 0
  outer loop
    vertex 1.978201150894165 5.218084335327148 2.052637577056885
    vertex 1.978201150894165 4.975196838378906 0
    vertex 1.978201150894165 4.975196838378906 2.052637577056885
  endloop
endfacet
facet normal -1 0 0
  outer loop
    vertex 1.978201150894165 4.975196838378906 0
    vertex 1.978201150894165 5.218084335327148 2.052637577056885
    vertex 1.978201150894165 5.218084335327148 0
  endloop
endfacet
facet normal 0 -1 0
  outer loop
    vertex 5.161138534545898 4.975196838378906 2.052637577056885
    vertex 2.178226232528687 4.975196838378906 0
    vertex 5.161138534545898 4.975196838378906 0
  endloop
endfacet
facet normal 0 -1 0
  outer loop
    vertex 2.178226232528687 4.975196838378906 0
    vertex 5.161138534545898 4.975196838378906 2.052637577056885
    vertex 2.178226232528687 4.975196838378906 2.052637577056885
  endloop
endfacet
facet normal 0 -1 0
  outer loop
    vertex 2.178226232528687 4.975196838378906 2.052637577056885
    vertex 1.978201150894165 4.975196838378906 0
    vertex 2.178226232528687 4.975196838378906 0
  endloop
endfacet
facet normal 0 -1 0
  outer loop
    vertex 1.978201150894165 4.975196838378906 0
    vertex 2.178226232528687 4.975196838378906 2.052637577056885
    vertex 1.978201150894165 4.975196838378906 2.052637577056885
  endloop
endfacet
facet normal 0 1 0
  outer loop
    vertex 1.978201150894165 5.218084335327148 2.052637577056885
    vertex 5.161138534545898 5.218084335327148 0
    vertex 1.978201150894165 5.218084335327148 0
  endloop
endfacet
facet normal 0 1 0
  outer loop
    vertex 5.161138534545898 5.218084335327148 0
    vertex 1.978201150894165 5.218084335327148 2.052637577056885
    vertex 5.161138534545898 5.218084335327148 2.052637577056885
  endloop
endfacet
endsolid com.sketchup.SketchUp.2019
